<?xml version="1.0" standalone="no"?>
<svg
  width="600"
  height="600"
  viewBox="0 0 600 600"
  xmlns="http://www.w3.org/2000/svg"
>
  <g transform="translate(300,300)">
    <path d="M150,-190C188.4,-178.6,209.3,-126.7,204.7,-80.7C200,-34.7,169.9,5.4,150.7,44.1C131.4,82.9,123,120.3,99.7,147.4C76.4,174.5,38.2,191.3,5.6,183.6C-27,175.9,-54.1,143.8,-88,120.1C-121.9,96.5,-162.7,81.3,-176.6,53.8C-190.5,26.3,-177.5,-13.6,-148.5,-31.4C-119.5,-49.1,-74.4,-44.8,-47,-59.7C-19.6,-74.6,-9.8,-108.8,23,-140.5C55.8,-172.2,111.7,-201.4,150,-190Z" fill="#f7f4e4" />
  </g>
</svg>
    