<?xml version="1.0" standalone="no"?>
<svg
  width="600"
  height="600"
  viewBox="0 0 600 600"
  xmlns="http://www.w3.org/2000/svg"
>
  <g transform="translate(300,300)">
    <path d="M126.5,-167.4C168.3,-143.7,209.7,-112.6,225.3,-71.6C240.9,-30.5,230.8,20.6,214.2,69C197.6,117.4,174.6,163,137.9,182.3C101.1,201.5,50.5,194.2,9,181.8C-32.5,169.4,-65,151.9,-107.7,134.6C-150.3,117.2,-203.1,100.2,-225.7,65.2C-248.2,30.2,-240.6,-22.8,-214.6,-59.5C-188.6,-96.3,-144.3,-116.9,-105.5,-141.6C-66.6,-166.4,-33.3,-195.2,4.5,-201.4C42.3,-207.6,84.6,-191.2,126.5,-167.4Z" fill="#ddf7d7" />
  </g>
</svg>
    